<svg width="48" height="48" viewBox="0 0 48 48" fill="none" xmlns="http://www.w3.org/2000/svg">
<path d="M44.5 14.5L26.5 3.5L30 12L44.5 14.5Z" fill="#E17726"/>
<path d="M3.5 14.5L21 3.5L18 12L3.5 14.5Z" fill="#E17726"/>
<path d="M38 34.5L33.5 42L43.5 44.5L46 35L38 34.5Z" fill="#E17726"/>
<path d="M2 35L4.5 44.5L14.5 42L10 34.5L2 35Z" fill="#E17726"/>
<path d="M14 21L11.5 25.5L21.5 26L21 16L14 21Z" fill="#E17726"/>
<path d="M34 21L27 16L26.5 26L36.5 25.5L34 21Z" fill="#E17726"/>
<path d="M14.5 42L20 39.5L15.5 35.5L14.5 42Z" fill="#E17726"/>
<path d="M28 39.5L33.5 42L32.5 35.5L28 39.5Z" fill="#E17726"/>
<path d="M33.5 42L28 39.5L28.5 43.5L28 44.5L33.5 42Z" fill="#D5BFB2"/>
<path d="M14.5 42L20 44.5L19.5 43.5L20 39.5L14.5 42Z" fill="#D5BFB2"/>
<path d="M20.5 32L15.5 30.5L19 28.5L20.5 32Z" fill="#233447"/>
<path d="M27.5 32L29 28.5L32.5 30.5L27.5 32Z" fill="#233447"/>
<path d="M14.5 42L15.5 35.5L10 35L14.5 42Z" fill="#CC6228"/>
<path d="M32.5 35.5L33.5 42L38 35L32.5 35.5Z" fill="#CC6228"/>
<path d="M36.5 25.5L26.5 26L27.5 32L29 28.5L32.5 30.5L36.5 25.5Z" fill="#CC6228"/>
<path d="M15.5 30.5L19 28.5L20.5 32L21.5 26L11.5 25.5L15.5 30.5Z" fill="#CC6228"/>
<path d="M11.5 25.5L15.5 35.5L15.5 30.5L11.5 25.5Z" fill="#E27525"/>
<path d="M32.5 30.5L32.5 35.5L36.5 25.5L32.5 30.5Z" fill="#E27525"/>
<path d="M21.5 26L20.5 32L21.5 38.5L24 30L21.5 26Z" fill="#E27525"/>
<path d="M26.5 26L24 30L26.5 38.5L27.5 32L26.5 26Z" fill="#E27525"/>
<path d="M27.5 32L26.5 38.5L28 39.5L32.5 35.5L32.5 30.5L27.5 32Z" fill="#F5841F"/>
<path d="M15.5 30.5L15.5 35.5L20 39.5L21.5 38.5L20.5 32L15.5 30.5Z" fill="#F5841F"/>
<path d="M28 44.5L28.5 43.5L28 39.5L20 39.5L19.5 43.5L20 44.5L28 44.5Z" fill="#C0AC9D"/>
<path d="M28 39.5L26.5 38.5L21.5 38.5L20 39.5L28 39.5Z" fill="#161616"/>
<path d="M45.5 16L48 6L44.5 14.5L30 12L34 21L43 23.5L45.5 20L44 18.5L45.5 17L43.5 15.5L45.5 16Z" fill="#763E1A"/>
<path d="M0 6L2.5 16L4 15.5L2 17L3.5 18.5L2 20L4.5 23.5L13.5 21L18 12L3.5 14.5L0 6Z" fill="#763E1A"/>
</svg>